# xmcd CD database file
#
# Track frame offsets:
#	150
#	21789
#	41212
#	68604
#	89315
#	108740
#	127962
#	150363
#	165156
#	187317
#	208195
#	229072
#	249841
#	269054
#	290460
#	316467
#
# Disc length: 4620 seconds
#
# Revision: 1
# Processed by: cddbd v1.5.2PL0 Copyright (c) Steve Scherf et al.
# Submitted via: CDex 1.70beta2
#
DISCID=e0120a10
DTITLE=Various Artist - Salsa En La Decima Venida N.Y.
DYEAR=1900
DGENRE=Salsa
TTITLE0=01-Grupo Niche - Han Codigo La Cosa
TTITLE1=02-Tito Gomez - Llorara
TTITLE2=03-Tito Rojas - Por Mujeres Como Tu
TTITLE3=04-Jerry Galante - Se Prendio El Rumbon
TTITLE4=05-Mimi Ibara - Propiedad Privada
TTITLE5=06-Puerto Rican Power - Tu Carinito
TTITLE6=07-Jimmy El Leon - Melao De Cana
TTITLE7=08-Alquimia - Tu Boquita
TTITLE8=09-Harvey - Llora Un Corazon
TTITLE9=10-Anthony Cruz - Nada Nada Nada
TTITLE10=11-Giro - Me Sospecho
TTITLE11=12-Willie Rosario - Quien Rayos Me Mandaria
TTITLE12=13-Oscar D'Leon and La India - Los Tamalitos De Olga
TTITLE13=14-Oscar D'Leon and La India - Hazme El Amor
TTITLE14=15-La India Con Eddie Palmieri - Yemaya Y Ochun
TTITLE15=16-La India and Celia Cruz - La Voz De La Experiencia
EXTD=
EXTT0=
EXTT1=
EXTT2=
EXTT3=
EXTT4=
EXTT5=
EXTT6=
EXTT7=
EXTT8=
EXTT9=
EXTT10=
EXTT11=
EXTT12=
EXTT13=
EXTT14=
EXTT15=
PLAYORDER=
